# xmcd
# 
# Track frame offsets:
#     150
#     10641
#     22470
#     34555
#     40513
#     53794
#     67058
#     85905
#     109116
#     138557
#     159168
#     182189
# 
# Disc length: 2695
# 
# Revision: 0
# Processed by: cddbd v1.5.2PL0 Copyright (c) Steve Scherf et al.
# Submitted via: fre:ac v1.0.31
# 
DISCID=980a850c
DTITLE=Balkan Quartet - Balkan Quartet
DYEAR=2013
DGENRE=World Music
TTITLE0=Echmiadzin Dance
TTITLE1=The Red Shawl
TTITLE2=Clouds
TTITLE3=Festive Song
TTITLE4=The Crane
TTITLE5=Zikino Kolo
TTITLE6=Souvenir from Marinko's Pond
TTITLE7=Gypsy Song
TTITLE8=Hotland
TTITLE9=Folk Suite
TTITLE10=Sevdah Tango
TTITLE11=Just for Wonder
EXTD=
EXTT0=
EXTT1=
EXTT2=
EXTT3=
EXTT4=
EXTT5=
EXTT6=
EXTT7=
EXTT8=
EXTT9=
EXTT10=
EXTT11=
PLAYORDER=
